<svg width="84" height="37" viewBox="0 0 84 37" fill="none" xmlns="http://www.w3.org/2000/svg">
<path d="M3.24202 22.4956L3.33208 24.5894V35.4637H0V3.87643L1.71107 2.03027H18.3715V5.36235H3.15197L3.33208 7.45616V17.0472L3.15197 18.7357H3.37711L17.651 11.6663L19.1369 14.6381L3.24202 22.4956Z" fill="white"/>
<path d="M26.0262 35.4636H22.7842V2.03019H25.9361L26.1163 18.7356L26.0262 35.4636ZM35.8874 16.2816C34.8067 16.2816 33.771 16.079 32.8029 15.6512C31.8348 15.2234 30.9793 14.6606 30.2814 13.9401C29.5609 13.2197 28.9981 12.3641 28.5928 11.4186C28.165 10.473 27.9624 9.43732 27.9624 8.31161C27.9624 7.23094 28.165 6.21781 28.5928 5.2497C29.0206 4.30411 29.5834 3.44858 30.2814 2.72813C31.0018 2.00768 31.8348 1.42231 32.8029 1.01706C33.771 0.611806 34.8067 0.40918 35.8874 0.40918C36.9906 0.40918 38.0262 0.611806 38.9943 1.03957C39.9399 1.46734 40.7954 2.03019 41.5159 2.75064C42.2363 3.47109 42.8217 4.32663 43.2269 5.27222C43.6547 6.24032 43.8573 7.25345 43.8573 8.33413C43.8573 9.43732 43.6547 10.473 43.2269 11.4411C42.7992 12.4092 42.2363 13.2422 41.5159 13.9626C40.7954 14.6831 39.9399 15.2685 38.9943 15.6737C38.0262 16.079 36.9906 16.2816 35.8874 16.2816ZM41.9436 36.2065L44.6228 34.2253L34.9868 21.2572L32.893 18.7581L30.3039 20.6493L41.9436 36.2065ZM35.8874 3.74126C35.2345 3.74126 34.6266 3.85383 34.0862 4.10149C33.5234 4.34914 33.0506 4.68685 32.6228 5.0921C32.1951 5.51987 31.8799 5.99267 31.6547 6.55552C31.4296 7.11837 31.317 7.70373 31.317 8.31161C31.317 8.96452 31.4296 9.5724 31.6547 10.1353C31.8799 10.6981 32.2176 11.1934 32.6228 11.6212C33.0506 12.0489 33.5234 12.3641 34.0862 12.5893C34.6491 12.8144 35.2345 12.927 35.8874 12.927C36.5403 12.927 37.1481 12.8144 37.6885 12.5893C38.2513 12.3641 38.7241 12.0264 39.1519 11.6212C39.5797 11.1934 39.8949 10.7206 40.1425 10.1353C40.3902 9.5724 40.5027 8.96452 40.5027 8.31161C40.5027 7.70373 40.3902 7.11837 40.1425 6.55552C39.8949 5.99267 39.5572 5.51987 39.1519 5.0921C38.7241 4.66434 38.2513 4.34914 37.6885 4.10149C37.1256 3.87634 36.5403 3.74126 35.8874 3.74126Z" fill="white"/>
<path d="M62.8363 5.36235H46.1309V2.03027H62.8363V5.36235ZM46.1084 20.4243V17.0697H62.8138V20.4017H46.1084V20.4243ZM62.8363 35.4637H46.1309V32.1316H62.8363V35.4637Z" fill="white"/>
<path d="M84.0004 5.36235H67.295V2.03027H84.0004V5.36235ZM67.2725 20.4243V17.0697H83.9779V20.4017H67.2725V20.4243ZM84.0004 35.4637H67.295V32.1316H84.0004V35.4637Z" fill="white"/>
</svg>
